<svg width="29" height="28" viewBox="0 0 29 28" fill="none" xmlns="http://www.w3.org/2000/svg">
<path d="M9.0625 20.72L14.5 15.47L19.9375 20.72L21.46 19.25L16.0225 14L21.46 8.75L19.9375 7.28L14.5 12.53L9.0625 7.28L7.54 8.75L12.9775 14L7.54 19.25L9.0625 20.72ZM14.5 28C12.4458 28 10.5367 27.6442 8.7725 26.9325C7.00833 26.2208 5.47375 25.235 4.16875 23.975C2.86375 22.715 1.84271 21.2333 1.10563 19.53C0.368542 17.8267 0 15.9833 0 14C0 12.04 0.368542 10.2083 1.10563 8.505C1.84271 6.80167 2.86375 5.32 4.16875 4.06C5.47375 2.8 7.00833 1.80833 8.7725 1.085C10.5367 0.361667 12.4458 0 14.5 0C16.53 0 18.4271 0.361667 20.1912 1.085C21.9554 1.80833 23.49 2.8 24.795 4.06C26.1 5.32 27.1271 6.80167 27.8762 8.505C28.6254 10.2083 29 12.04 29 14C29 15.9833 28.6254 17.8267 27.8762 19.53C27.1271 21.2333 26.1 22.715 24.795 23.975C23.49 25.235 21.9554 26.2208 20.1912 26.9325C18.4271 27.6442 16.53 28 14.5 28ZM14.5 25.9C17.8833 25.9 20.7833 24.7333 23.2 22.4C25.6167 20.0667 26.825 17.2667 26.825 14C26.825 10.7333 25.6167 7.93333 23.2 5.6C20.7833 3.26667 17.8833 2.1 14.5 2.1C11.1167 2.1 8.21667 3.26667 5.8 5.6C3.38333 7.93333 2.175 10.7333 2.175 14C2.175 17.2667 3.38333 20.0667 5.8 22.4C8.21667 24.7333 11.1167 25.9 14.5 25.9Z" fill="#FF7A00"/>
</svg>
