<svg width="32" height="32" viewBox="0 0 32 32" fill="none" xmlns="http://www.w3.org/2000/svg">
<path d="M7.16667 28.1C6.41111 28.1 5.66667 27.9722 4.93333 27.7167C4.2 27.4611 3.55556 27.0444 3 26.4667C3.77778 26.2 4.33333 25.8111 4.66667 25.3C5 24.7889 5.16667 24.1 5.16667 23.2333C5.16667 22.2555 5.50556 21.4278 6.18333 20.75C6.86111 20.0722 7.68889 19.7333 8.66667 19.7333C9.64444 19.7333 10.4722 20.0722 11.15 20.75C11.8278 21.4278 12.1667 22.2555 12.1667 23.2333C12.1667 24.6555 11.6833 25.8222 10.7167 26.7333C9.75 27.6444 8.56667 28.1 7.16667 28.1ZM7.16667 26.1C7.94444 26.1 8.63889 25.8222 9.25 25.2667C9.86111 24.7111 10.1667 24.0333 10.1667 23.2333C10.1667 22.7889 10.0278 22.4278 9.75 22.15C9.47222 21.8722 9.11111 21.7333 8.66667 21.7333C8.22222 21.7333 7.86111 21.8722 7.58333 22.15C7.30556 22.4278 7.16667 22.7889 7.16667 23.2333C7.16667 24.1 7.07222 24.7389 6.88333 25.15C6.69444 25.5611 6.34444 25.8111 5.83333 25.9C5.96667 25.9222 6.18889 25.9611 6.5 26.0167C6.81111 26.0722 7.03333 26.1 7.16667 26.1ZM14.8333 20.2L11.8333 17.0333L24.3667 4.49998C24.6778 4.18887 25.0222 4.02776 25.4 4.01665C25.7778 4.00554 26.1333 4.16665 26.4667 4.49998L27.4333 5.46665C27.7667 5.79998 27.9278 6.1611 27.9167 6.54998C27.9056 6.93887 27.7444 7.28887 27.4333 7.59998L14.8333 20.2Z" fill="#FF7A00"/>
</svg>
