<svg width="32" height="32" viewBox="0 0 32 32" fill="none" xmlns="http://www.w3.org/2000/svg">
<path d="M8.66673 27.6668V28.6668H23.3334V27.6668H8.66673ZM8.66673 4.3335H23.3334V3.3335H8.66673V4.3335ZM6.66673 8.46683V3.3335C6.66673 2.82239 6.87229 2.36127 7.2834 1.95016C7.69451 1.53905 8.15562 1.3335 8.66673 1.3335H23.3334C23.8445 1.3335 24.3056 1.53905 24.7167 1.95016C25.1278 2.36127 25.3334 2.82239 25.3334 3.3335V8.46683H23.3334V6.3335H8.66673V8.46683H6.66673ZM8.66673 30.6668C8.15562 30.6668 7.69451 30.4668 7.2834 30.0668C6.87229 29.6668 6.66673 29.2002 6.66673 28.6668V23.1335H8.66673V25.6668H23.3334V23.1335H25.3334V28.6668C25.3334 29.2002 25.1278 29.6668 24.7167 30.0668C24.3056 30.4668 23.8445 30.6668 23.3334 30.6668H8.66673ZM19.8334 21.3668C19.6556 21.1668 19.5612 20.9335 19.5501 20.6668C19.539 20.4002 19.6334 20.1668 19.8334 19.9668L23.8001 16.0002L19.8334 12.0335C19.6334 11.8335 19.539 11.6002 19.5501 11.3335C19.5612 11.0668 19.6556 10.8335 19.8334 10.6335C20.0334 10.4335 20.2723 10.3279 20.5501 10.3168C20.8278 10.3057 21.0667 10.4002 21.2667 10.6002L25.9667 15.3002C26.0778 15.4113 26.1556 15.5224 26.2001 15.6335C26.2445 15.7446 26.2667 15.8668 26.2667 16.0002C26.2667 16.1335 26.2445 16.2557 26.2001 16.3668C26.1556 16.4779 26.0778 16.5891 25.9667 16.7002L21.2667 21.4002C21.0667 21.6002 20.8278 21.6946 20.5501 21.6835C20.2723 21.6724 20.0334 21.5668 19.8334 21.3668ZM10.7334 21.4002L6.0334 16.7002C5.92229 16.5891 5.84451 16.4779 5.80006 16.3668C5.75562 16.2557 5.7334 16.1335 5.7334 16.0002C5.7334 15.8668 5.75562 15.7446 5.80006 15.6335C5.84451 15.5224 5.92229 15.4113 6.0334 15.3002L10.7334 10.6002C10.9334 10.4002 11.1723 10.3057 11.4501 10.3168C11.7278 10.3279 11.9667 10.4335 12.1667 10.6335C12.3445 10.8335 12.439 11.0668 12.4501 11.3335C12.4612 11.6002 12.3667 11.8335 12.1667 12.0335L8.20007 16.0002L12.1667 19.9668C12.3667 20.1668 12.4612 20.4002 12.4501 20.6668C12.439 20.9335 12.3445 21.1668 12.1667 21.3668C11.9667 21.5668 11.7278 21.6724 11.4501 21.6835C11.1723 21.6946 10.9334 21.6002 10.7334 21.4002ZM8.66673 28.6668V27.6668V28.6668ZM8.66673 3.3335V4.3335V3.3335Z" fill="#FF7A00"/>
</svg>
