<svg width="32" height="32" viewBox="0 0 32 32" fill="none" xmlns="http://www.w3.org/2000/svg">
<path d="M12.1002 26.6668C11.8113 26.6668 11.5724 26.5724 11.3835 26.3835C11.1946 26.1946 11.1002 25.9557 11.1002 25.6668V20.9002H6.3335C6.04461 20.9002 5.80572 20.8057 5.61683 20.6168C5.42794 20.4279 5.3335 20.1891 5.3335 19.9002C5.3335 19.6113 5.42794 19.3724 5.61683 19.1835C5.80572 18.9946 6.04461 18.9002 6.3335 18.9002H11.1002V13.1002H6.3335C6.04461 13.1002 5.80572 13.0057 5.61683 12.8168C5.42794 12.6279 5.3335 12.3891 5.3335 12.1002C5.3335 11.8113 5.42794 11.5724 5.61683 11.3835C5.80572 11.1946 6.04461 11.1002 6.3335 11.1002H11.1002V6.3335C11.1002 6.04461 11.1946 5.80572 11.3835 5.61683C11.5724 5.42794 11.8113 5.3335 12.1002 5.3335C12.3891 5.3335 12.6279 5.42794 12.8168 5.61683C13.0057 5.80572 13.1002 6.04461 13.1002 6.3335V11.1002H18.9002V6.3335C18.9002 6.04461 18.9946 5.80572 19.1835 5.61683C19.3724 5.42794 19.6113 5.3335 19.9002 5.3335C20.1891 5.3335 20.4279 5.42794 20.6168 5.61683C20.8057 5.80572 20.9002 6.04461 20.9002 6.3335V11.1002H25.6668C25.9557 11.1002 26.1946 11.1946 26.3835 11.3835C26.5724 11.5724 26.6668 11.8113 26.6668 12.1002C26.6668 12.3891 26.5724 12.6279 26.3835 12.8168C26.1946 13.0057 25.9557 13.1002 25.6668 13.1002H20.9002V18.9002H25.6668C25.9557 18.9002 26.1946 18.9946 26.3835 19.1835C26.5724 19.3724 26.6668 19.6113 26.6668 19.9002C26.6668 20.1891 26.5724 20.4279 26.3835 20.6168C26.1946 20.8057 25.9557 20.9002 25.6668 20.9002H20.9002V25.6668C20.9002 25.9557 20.8057 26.1946 20.6168 26.3835C20.4279 26.5724 20.1891 26.6668 19.9002 26.6668C19.6113 26.6668 19.3724 26.5724 19.1835 26.3835C18.9946 26.1946 18.9002 25.9557 18.9002 25.6668V20.9002H13.1002V25.6668C13.1002 25.9557 13.0057 26.1946 12.8168 26.3835C12.6279 26.5724 12.3891 26.6668 12.1002 26.6668ZM13.1002 18.9002H18.9002V13.1002H13.1002V18.9002Z" fill="#FF7A00"/>
</svg>
