<svg width="28" height="21" viewBox="0 0 28 21" fill="none" xmlns="http://www.w3.org/2000/svg">
<path d="M17.7599 0.502441C17.4951 0.961871 17.2591 1.43634 17.0532 1.92327C15.0302 1.61334 12.9695 1.61334 10.9466 1.92327C10.7407 1.43634 10.5047 0.961871 10.2399 0.502441C8.33428 0.817868 6.48176 1.38276 4.73322 2.18161C1.60648 6.55298 0.188472 11.86 0.733223 17.152C2.77087 18.636 5.05783 19.7677 7.49322 20.4974C8.04777 19.7878 8.54269 19.0362 8.97322 18.2499C8.17866 17.9661 7.41495 17.607 6.69322 17.1779C6.89117 17.0503 7.07842 16.9077 7.25322 16.7516C9.35784 17.7337 11.6638 18.2437 13.9999 18.2437C16.3359 18.2437 18.6419 17.7337 20.7466 16.7516C20.9332 16.9066 21.1199 17.0487 21.3066 17.1779C20.5809 17.6036 19.818 17.9667 19.0266 18.2629C19.4392 19.067 19.9209 19.8361 20.4666 20.562C22.8989 19.8348 25.1819 18.7028 27.2132 17.2166C27.7711 11.9236 26.3519 6.61226 23.2132 2.24619C21.4843 1.43081 19.6501 0.844307 17.7599 0.502441V0.502441ZM9.57322 14.1295C8.906 14.0831 8.28328 13.7881 7.83578 13.3064C7.38829 12.8248 7.15082 12.1939 7.17322 11.5462C7.14744 10.8977 7.38374 10.265 7.83191 9.78256C8.28007 9.30016 8.90477 9.00609 9.57322 8.96286C10.2417 9.00609 10.8664 9.30016 11.3145 9.78256C11.7627 10.265 11.999 10.8977 11.9732 11.5462C11.999 12.1947 11.7627 12.8274 11.3145 13.3098C10.8664 13.7922 10.2417 14.0863 9.57322 14.1295V14.1295ZM18.4266 14.1295C17.7593 14.0831 17.1366 13.7881 16.6891 13.3064C16.2416 12.8248 16.0042 12.1939 16.0266 11.5462C16.0008 10.8977 16.2371 10.265 16.6852 9.78256C17.1334 9.30016 17.7581 9.00609 18.4266 8.96286C19.0963 9.00287 19.723 9.29598 20.1718 9.77912C20.6207 10.2623 20.8558 10.8968 20.8266 11.5462C20.8558 12.1956 20.6207 12.8301 20.1718 13.3133C19.723 13.7964 19.0963 14.0895 18.4266 14.1295V14.1295Z" fill="#FF7A00"/>
</svg>
