<svg width="24" height="24" viewBox="0 0 24 24" fill="none" xmlns="http://www.w3.org/2000/svg">
<path d="M22.6667 0H1.33333C0.979711 0 0.640573 0.136086 0.390524 0.37832C0.140476 0.620555 0 0.949095 0 1.29167V21.9583C0 22.3009 0.140476 22.6294 0.390524 22.8717C0.640573 23.1139 0.979711 23.25 1.33333 23.25H12.82V14.26H9.70267V10.7402H12.82V8.15687C12.82 5.15375 14.7133 3.51721 17.4867 3.51721C18.4187 3.51462 19.352 3.56112 20.28 3.65542V6.78125H18.3667C16.8627 6.78125 16.5693 7.47617 16.5693 8.49271V10.7338H20.1653L19.6987 14.2535H16.568V23.25H22.6667C23.0203 23.25 23.3594 23.1139 23.6095 22.8717C23.8595 22.6294 24 22.3009 24 21.9583V1.29167C24 0.949095 23.8595 0.620555 23.6095 0.37832C23.3594 0.136086 23.0203 0 22.6667 0V0Z" fill="#FF7A00"/>
</svg>
