<svg width="28" height="26" viewBox="0 0 28 26" fill="none" xmlns="http://www.w3.org/2000/svg">
<path fill-rule="evenodd" clip-rule="evenodd" d="M14.0345 0.583496C6.68917 0.583496 0.73584 6.35079 0.73584 13.4666C0.73584 19.1577 4.54517 23.9872 9.83051 25.6922C10.4958 25.8085 10.7358 25.4119 10.7358 25.0709C10.7358 24.7648 10.7252 23.9536 10.7212 22.8802C7.02117 23.6578 6.23984 21.152 6.23984 21.152C5.63717 19.664 4.76384 19.2675 4.76384 19.2675C3.55717 18.4679 4.85584 18.486 4.85584 18.486C6.19184 18.5764 6.89184 19.8138 6.89184 19.8138C8.07851 21.7823 10.0065 21.214 10.7612 20.8846C10.8825 20.0515 11.2292 19.4832 11.6078 19.1615C8.65584 18.8373 5.55184 17.7317 5.55184 12.7936C5.55184 11.3896 6.07051 10.2374 6.91717 9.33841C6.78251 9.01162 6.32251 7.70058 7.04917 5.92841C7.04917 5.92841 8.16517 5.58095 10.7052 7.2472C11.79 6.96132 12.909 6.81539 14.0332 6.8132C15.1574 6.81497 16.2765 6.96091 17.3612 7.2472C19.9025 5.57966 21.0172 5.92841 21.0172 5.92841C21.7438 7.70058 21.2878 9.01162 21.1492 9.33841C22.0025 10.2374 22.5145 11.3883 22.5145 12.7936C22.5145 17.7446 19.4078 18.8322 16.4452 19.1512C16.9185 19.549 17.3452 20.3344 17.3452 21.5356C17.3452 23.2587 17.3292 24.6485 17.3292 25.0709C17.3292 25.4158 17.5665 25.8162 18.2452 25.6896C23.5278 23.982 27.3332 19.1564 27.3332 13.4666C27.3332 6.35079 21.3798 0.583496 14.0345 0.583496Z" fill="#FF7A00"/>
</svg>
