<svg width="28" height="28" viewBox="0 0 28 28" fill="none" xmlns="http://www.w3.org/2000/svg">
<path d="M13.9998 21.2998C15.4665 21.2998 16.8165 20.9054 18.0498 20.1165C19.2832 19.3276 20.1776 18.2554 20.7332 16.8998H7.2665C7.84428 18.2554 8.74428 19.3276 9.9665 20.1165C11.1887 20.9054 12.5332 21.2998 13.9998 21.2998ZM8.0665 12.2332L9.5665 10.7332L11.0665 12.2332L12.2665 11.0332L9.5665 8.33317L6.8665 11.0332L8.0665 12.2332ZM16.9665 12.2332L18.4665 10.7332L19.9665 12.2332L21.1665 11.0332L18.4665 8.33317L15.7665 11.0332L16.9665 12.2332ZM13.9998 27.3332C12.1776 27.3332 10.4554 26.9832 8.83317 26.2832C7.21095 25.5832 5.79428 24.6276 4.58317 23.4165C3.37206 22.2054 2.4165 20.7887 1.7165 19.1665C1.0165 17.5443 0.666504 15.8221 0.666504 13.9998C0.666504 12.1554 1.0165 10.4221 1.7165 8.79984C2.4165 7.17762 3.37206 5.7665 4.58317 4.5665C5.79428 3.3665 7.21095 2.4165 8.83317 1.7165C10.4554 1.0165 12.1776 0.666504 13.9998 0.666504C15.8443 0.666504 17.5776 1.0165 19.1998 1.7165C20.8221 2.4165 22.2332 3.3665 23.4332 4.5665C24.6332 5.7665 25.5832 7.17762 26.2832 8.79984C26.9832 10.4221 27.3332 12.1554 27.3332 13.9998C27.3332 15.8221 26.9832 17.5443 26.2832 19.1665C25.5832 20.7887 24.6332 22.2054 23.4332 23.4165C22.2332 24.6276 20.8221 25.5832 19.1998 26.2832C17.5776 26.9832 15.8443 27.3332 13.9998 27.3332ZM13.9998 25.3332C17.1554 25.3332 19.8332 24.2276 22.0332 22.0165C24.2332 19.8054 25.3332 17.1332 25.3332 13.9998C25.3332 10.8443 24.2332 8.1665 22.0332 5.9665C19.8332 3.7665 17.1554 2.6665 13.9998 2.6665C10.8665 2.6665 8.19428 3.7665 5.98317 5.9665C3.77206 8.1665 2.6665 10.8443 2.6665 13.9998C2.6665 17.1332 3.77206 19.8054 5.98317 22.0165C8.19428 24.2276 10.8665 25.3332 13.9998 25.3332Z" fill="#FF7A00"/>
</svg>
