<svg width="26" height="25" viewBox="0 0 26 25" fill="none" xmlns="http://www.w3.org/2000/svg">
<path d="M12.9918 16.6C15.2031 16.6 16.9958 14.7514 16.9958 12.4709C16.9958 10.1905 15.2031 8.3418 12.9918 8.3418C10.7804 8.3418 8.98779 10.1905 8.98779 12.4709C8.98779 14.7514 10.7804 16.6 12.9918 16.6Z" fill="#FF7A00"/>
<path d="M24.9294 7.41913C24.916 6.37774 24.7269 5.3467 24.3708 4.37213C24.0619 3.55009 23.5901 2.80353 22.9857 2.18015C22.3812 1.55677 21.6572 1.07028 20.8601 0.751758C19.9272 0.390624 18.9417 0.195352 17.9454 0.174258C16.6628 0.115133 16.2561 0.0986328 13.0001 0.0986328C9.74409 0.0986328 9.32676 0.0986329 8.05343 0.174258C7.05764 0.195507 6.07256 0.390776 5.14009 0.751758C4.34284 1.07006 3.61879 1.55647 3.01427 2.17988C2.40975 2.80329 1.93808 3.54996 1.62943 4.37213C1.27854 5.33344 1.08959 6.34953 1.07076 7.37651C1.01343 8.70063 0.996094 9.12001 0.996094 12.4778C0.996094 15.8355 0.996094 16.2645 1.07076 17.579C1.09076 18.6075 1.27876 19.6223 1.62943 20.5861C1.9386 21.4081 2.41062 22.1544 3.01534 22.7776C3.62006 23.4007 4.34418 23.8869 5.14143 24.2051C6.07134 24.5808 7.05659 24.79 8.05476 24.8239C9.33876 24.883 9.74543 24.9009 13.0014 24.9009C16.2574 24.9009 16.6748 24.9009 17.9481 24.8239C18.9443 24.8037 19.9299 24.6088 20.8628 24.2478C21.6597 23.9289 22.3834 23.4422 22.9879 22.8189C23.5923 22.1956 24.0642 21.4492 24.3734 20.6274C24.7241 19.6649 24.9121 18.6501 24.9321 17.6203C24.9894 16.2975 25.0068 15.8781 25.0068 12.519C25.0041 9.16126 25.0041 8.73501 24.9294 7.41913V7.41913ZM12.9921 18.8275C9.58676 18.8275 6.82809 15.9826 6.82809 12.4709C6.82809 8.95913 9.58676 6.11426 12.9921 6.11426C14.6269 6.11426 16.1947 6.78397 17.3507 7.97607C18.5067 9.16817 19.1561 10.785 19.1561 12.4709C19.1561 14.1568 18.5067 15.7736 17.3507 16.9657C16.1947 18.1578 14.6269 18.8275 12.9921 18.8275V18.8275ZM19.4014 7.36138C19.2126 7.36156 19.0256 7.32335 18.8512 7.24892C18.6767 7.1745 18.5182 7.06532 18.3847 6.92765C18.2512 6.78997 18.1453 6.6265 18.0731 6.44658C18.001 6.26666 17.9639 6.07384 17.9641 5.87913C17.9641 5.68457 18.0013 5.49192 18.0735 5.31216C18.1457 5.13241 18.2515 4.96909 18.3849 4.83151C18.5183 4.69393 18.6767 4.5848 18.851 4.51035C19.0253 4.43589 19.2121 4.39757 19.4008 4.39757C19.5894 4.39757 19.7762 4.43589 19.9505 4.51035C20.1249 4.5848 20.2832 4.69393 20.4166 4.83151C20.55 4.96909 20.6559 5.13241 20.7281 5.31216C20.8003 5.49192 20.8374 5.68457 20.8374 5.87913C20.8374 6.69863 20.1948 7.36138 19.4014 7.36138Z" fill="#FF7A00"/>
</svg>
