<svg width="22" height="28" viewBox="0 0 22 28" fill="none" xmlns="http://www.w3.org/2000/svg">
<path d="M7.3335 14.9998V8.83317L11.0002 6.39984L14.6668 8.83317V14.9998H12.6668V10.9998H9.3335V14.9998H7.3335ZM11.0002 24.6998C13.9557 22.0109 16.1391 19.5721 17.5502 17.3832C18.9613 15.1943 19.6668 13.2665 19.6668 11.5998C19.6668 8.97761 18.8279 6.83317 17.1502 5.1665C15.4724 3.49984 13.4224 2.6665 11.0002 2.6665C8.57794 2.6665 6.52794 3.49984 4.85016 5.1665C3.17238 6.83317 2.3335 8.97761 2.3335 11.5998C2.3335 13.2665 3.05572 15.1943 4.50016 17.3832C5.94461 19.5721 8.11127 22.0109 11.0002 24.6998ZM11.0002 27.3332C7.42238 24.2887 4.75016 21.4609 2.9835 18.8498C1.21683 16.2387 0.333496 13.8221 0.333496 11.5998C0.333496 8.2665 1.40572 5.61095 3.55016 3.63317C5.69461 1.65539 8.17794 0.666504 11.0002 0.666504C13.8224 0.666504 16.3057 1.65539 18.4502 3.63317C20.5946 5.61095 21.6668 8.2665 21.6668 11.5998C21.6668 13.8221 20.7835 16.2387 19.0168 18.8498C17.2502 21.4609 14.5779 24.2887 11.0002 27.3332Z" fill="#FF7A00"/>
</svg>
