<svg width="32" height="32" viewBox="0 0 32 32" fill="none" xmlns="http://www.w3.org/2000/svg">
<path d="M15.9998 23.1333C17.5998 23.1333 18.9443 22.5889 20.0332 21.5C21.1221 20.4111 21.6665 19.0556 21.6665 17.4333C21.6665 15.8333 21.1221 14.4944 20.0332 13.4167C18.9443 12.3389 17.5998 11.8 15.9998 11.8C14.3776 11.8 13.0276 12.3389 11.9498 13.4167C10.8721 14.4944 10.3332 15.8333 10.3332 17.4333C10.3332 19.0556 10.8721 20.4111 11.9498 21.5C13.0276 22.5889 14.3776 23.1333 15.9998 23.1333ZM4.6665 28C4.13317 28 3.6665 27.8 3.2665 27.4C2.8665 27 2.6665 26.5333 2.6665 26V8.9C2.6665 8.38889 2.8665 7.92778 3.2665 7.51667C3.6665 7.10556 4.13317 6.9 4.6665 6.9H9.5665L11.3998 4.7C11.5776 4.45556 11.7998 4.27778 12.0665 4.16667C12.3332 4.05556 12.6221 4 12.9332 4H19.0665C19.3776 4 19.6665 4.05556 19.9332 4.16667C20.1998 4.27778 20.4221 4.45556 20.5998 4.7L22.4332 6.9H27.3332C27.8443 6.9 28.3054 7.10556 28.7165 7.51667C29.1276 7.92778 29.3332 8.38889 29.3332 8.9V26C29.3332 26.5333 29.1276 27 28.7165 27.4C28.3054 27.8 27.8443 28 27.3332 28H4.6665ZM27.3332 26V8.9H4.6665V26H27.3332Z" fill="#FF7A00"/>
</svg>
