<svg width="28" height="24" viewBox="0 0 28 24" fill="none" xmlns="http://www.w3.org/2000/svg">
<path d="M19.9332 6.4V2H8.0665V6.4H6.0665V0H21.9332V6.4H19.9332ZM2.6665 8.4C2.6665 8.4 2.81095 8.4 3.09984 8.4C3.38873 8.4 3.75539 8.4 4.19984 8.4H23.7998C24.2443 8.4 24.6109 8.4 24.8998 8.4C25.1887 8.4 25.3332 8.4 25.3332 8.4H21.9332H6.0665H2.6665ZM22.6332 11.5667C22.8998 11.5667 23.1332 11.4667 23.3332 11.2667C23.5332 11.0667 23.6332 10.8333 23.6332 10.5667C23.6332 10.3 23.5332 10.0667 23.3332 9.86667C23.1332 9.66667 22.8998 9.56667 22.6332 9.56667C22.3665 9.56667 22.1332 9.66667 21.9332 9.86667C21.7332 10.0667 21.6332 10.3 21.6332 10.5667C21.6332 10.8333 21.7332 11.0667 21.9332 11.2667C22.1332 11.4667 22.3665 11.5667 22.6332 11.5667ZM19.9332 22V15.6H8.0665V22H19.9332ZM21.9332 24H6.0665V18.1333H0.666504V9.93333C0.666504 8.93333 1.00539 8.09444 1.68317 7.41667C2.36095 6.73889 3.19984 6.4 4.19984 6.4H23.7998C24.7998 6.4 25.6387 6.73889 26.3165 7.41667C26.9943 8.09444 27.3332 8.93333 27.3332 9.93333V18.1333H21.9332V24ZM25.3332 16.1333V9.93333C25.3332 9.48889 25.1887 9.12222 24.8998 8.83333C24.6109 8.54445 24.2443 8.4 23.7998 8.4H4.19984C3.75539 8.4 3.38873 8.54445 3.09984 8.83333C2.81095 9.12222 2.6665 9.48889 2.6665 9.93333V16.1333H6.0665V13.6H21.9332V16.1333H25.3332Z" fill="#FF7A00"/>
</svg>
