<svg width="27" height="23" viewBox="0 0 27 23" fill="none" xmlns="http://www.w3.org/2000/svg">
<path d="M24.1772 5.99612C24.1945 6.23674 24.1945 6.47599 24.1945 6.71524C24.1945 14.0371 18.7905 22.4741 8.9145 22.4741C5.87184 22.4741 3.04517 21.5652 0.666504 19.9867C1.0985 20.0376 1.5145 20.0555 1.96384 20.0555C4.38116 20.0615 6.73003 19.2279 8.63184 17.6891C7.51107 17.6682 6.42461 17.2869 5.52415 16.5984C4.6237 15.9099 3.95422 14.9486 3.60917 13.8487C3.94117 13.8996 4.2745 13.934 4.62384 13.934C5.10517 13.934 5.58917 13.8652 6.0385 13.7456C4.82218 13.4924 3.72847 12.8125 2.94333 11.8216C2.15819 10.8306 1.73009 9.58988 1.73184 8.31024V8.24149C2.44784 8.65262 3.2785 8.90974 4.1585 8.94412C3.42129 8.43892 2.8168 7.7534 2.39896 6.94871C1.98112 6.14401 1.76292 5.24517 1.76384 4.33237C1.76384 3.30387 2.02917 2.36062 2.4945 1.53837C3.84402 3.25027 5.52717 4.65077 7.43495 5.64915C9.34273 6.64753 11.4326 7.22154 13.5692 7.33399C13.4865 6.92149 13.4358 6.49387 13.4358 6.06487C13.4355 5.33744 13.5742 4.61707 13.8439 3.94495C14.1137 3.27282 14.5093 2.66212 15.0081 2.14775C15.5069 1.63338 16.0991 1.22543 16.7508 0.947225C17.4026 0.669017 18.1011 0.526006 18.8065 0.526368C20.3532 0.526368 21.7492 1.19462 22.7305 2.27537C23.9329 2.03559 25.0859 1.58295 26.1385 0.937493C25.7377 2.21736 24.8982 3.30264 23.7772 3.98999C24.8436 3.86456 25.8857 3.57537 26.8692 3.13199C26.1347 4.23625 25.2245 5.20459 24.1772 5.99612V5.99612Z" fill="#FF7A00"/>
</svg>
