<svg width="32" height="32" viewBox="0 0 32 32" fill="none" xmlns="http://www.w3.org/2000/svg">
<path d="M17.0998 27.3335H4.6665C4.13317 27.3335 3.6665 27.1335 3.2665 26.7335C2.8665 26.3335 2.6665 25.8668 2.6665 25.3335V7.3335C2.6665 6.80016 2.8665 6.3335 3.2665 5.9335C3.6665 5.5335 4.13317 5.3335 4.6665 5.3335H27.7998C28.3332 5.3335 28.7998 5.5335 29.1998 5.9335C29.5998 6.3335 29.7998 6.80016 29.7998 7.3335V15.5335H27.7998V7.3335H4.6665V25.3335H17.0998V27.3335ZM13.1665 22.1002V10.5668L21.9332 16.3335L13.1665 22.1002ZM24.3332 30.6668L24.1665 29.0668C23.7221 28.9335 23.2665 28.7391 22.7998 28.4835C22.3332 28.2279 21.9554 27.9446 21.6665 27.6335L20.2665 28.3002L19.0998 26.5002L20.3665 25.5002C20.2554 24.9891 20.1998 24.5279 20.1998 24.1168C20.1998 23.7057 20.2554 23.2446 20.3665 22.7335L19.0998 21.7335L20.2665 19.9002L21.6665 20.5668C21.9554 20.3002 22.3332 20.0335 22.7998 19.7668C23.2665 19.5002 23.7221 19.3002 24.1665 19.1668L24.3332 17.5335H26.3332L26.5332 19.1668C26.9776 19.3002 27.4332 19.5002 27.8998 19.7668C28.3665 20.0335 28.7443 20.3002 29.0332 20.5668L30.4332 19.9002L31.5998 21.7335L30.3332 22.7335C30.4443 23.2446 30.4998 23.7057 30.4998 24.1168C30.4998 24.5279 30.4443 24.9891 30.3332 25.5002L31.5998 26.5002L30.4332 28.3002L29.0332 27.6335C28.7443 27.9446 28.3665 28.2279 27.8998 28.4835C27.4332 28.7391 26.9776 28.9335 26.5332 29.0668L26.3332 30.6668H24.3332ZM25.3332 27.5002C26.3109 27.5002 27.1221 27.1779 27.7665 26.5335C28.4109 25.8891 28.7332 25.0779 28.7332 24.1002C28.7332 23.1224 28.4109 22.3113 27.7665 21.6668C27.1221 21.0224 26.3109 20.7002 25.3332 20.7002C24.3554 20.7002 23.5443 21.0224 22.8998 21.6668C22.2554 22.3113 21.9332 23.1224 21.9332 24.1002C21.9332 25.0779 22.2554 25.8891 22.8998 26.5335C23.5443 27.1779 24.3554 27.5002 25.3332 27.5002Z" fill="#FF7A00"/>
</svg>
