<svg width="28" height="20" viewBox="0 0 28 20" fill="none" xmlns="http://www.w3.org/2000/svg">
<path d="M26.7906 3.60385C26.6387 3.04038 26.342 2.52652 25.9298 2.1134C25.5176 1.70029 25.0044 1.40233 24.4413 1.24918C22.3533 0.675847 14 0.666514 14 0.666514C14 0.666514 5.64795 0.65718 3.55862 1.20518C2.99585 1.36538 2.48371 1.66755 2.07137 2.08269C1.65903 2.49784 1.36033 3.01201 1.20395 3.57585C0.653285 5.66385 0.647951 9.99451 0.647951 9.99451C0.647951 9.99451 0.642618 14.3465 1.18928 16.4132C1.49595 17.5558 2.39595 18.4585 3.53995 18.7665C5.64929 19.3398 13.98 19.3492 13.98 19.3492C13.98 19.3492 22.3333 19.3585 24.4213 18.8118C24.9846 18.659 25.4983 18.3617 25.9115 17.9494C26.3247 17.5372 26.6231 17.0242 26.7773 16.4612C27.3293 14.3745 27.3333 10.0452 27.3333 10.0452C27.3333 10.0452 27.36 5.69185 26.7906 3.60385V3.60385ZM11.328 14.0065L11.3346 6.00651L18.2773 10.0132L11.328 14.0065V14.0065Z" fill="#FF7A00"/>
</svg>
